<?xml version="1.0" standalone="yes"?>
<svg xmlns="http://www.w3.org/2000/svg" width="725" height="469">
<path style="fill:#ffffff; stroke:none;" d="M0 0L0 469L725 469L725 0L0 0z"/>
<path style="fill:#9f9e9d; stroke:none;" d="M19 19L20 20L19 19M39 19L40 20L39 19M59 19L60 20L59 19M79 19L80 20L79 19M99 19L100 20L99 19M119 19L120 20L119 19M139 19L140 20L139 19M159 19L160 20L159 19M179 19L180 20L179 19M199 19L200 20L199 19M219 19L220 20L219 19M239 19L240 20L239 19M259 19L260 20L259 19M279 19L280 20L279 19M299 19L300 20L299 19M319 19L320 20L319 19M339 19L340 20L339 19M359 19L360 20L359 19M379 19L380 20L379 19M399 19L400 20L399 19M419 19L420 20L419 19M439 19L440 20L439 19M459 19L460 20L459 19M479 19L480 20L479 19M499 19L500 20L499 19M519 19L520 20L519 19M539 19L540 20L539 19M559 19L560 20L559 19M579 19L580 20L579 19M599 19L600 20L599 19M619 19L620 20L619 19M639 19L640 20L639 19M659 19L660 20L659 19M679 19L680 20L679 19M699 19L700 20L699 19M719 19L720 20L719 19M19 39L20 40L19 39M39 39L40 40L39 39M59 39L60 40L59 39M79 39L80 40L79 39M99 39L100 40L99 39M119 39L120 40L119 39M139 39L140 40L139 39M159 39L160 40L159 39M179 39L180 40L179 39M199 39L200 40L199 39M219 39L220 40L219 39M239 39L240 40L239 39M259 39L260 40L259 39M279 39L280 40L279 39M299 39L300 40L299 39M319 39L320 40L319 39M339 39L340 40L339 39M359 39L360 40L359 39M379 39L380 40L379 39M399 39L400 40L399 39M419 39L420 40L419 39M439 39L440 40L439 39M459 39L460 40L459 39M479 39L480 40L479 39M499 39L500 40L499 39M519 39L520 40L519 39M539 39L540 40L539 39M559 39L560 40L559 39M579 39L580 40L579 39M599 39L600 40L599 39M619 39L620 40L619 39M639 39L640 40L639 39M659 39L660 40L659 39M679 39L680 40L679 39M699 39L700 40L699 39M719 39L720 40L719 39M19 59L20 60L19 59M39 59L40 60L39 59M59 59L60 60L59 59M79 59L80 60L79 59M99 59L100 60L99 59M119 59L120 60L119 59M139 59L140 60L139 59M159 59L160 60L159 59M179 59L180 60L179 59M199 59L200 60L199 59M219 59L220 60L219 59M239 59L240 60L239 59M259 59L260 60L259 59M279 59L280 60L279 59M299 59L300 60L299 59M319 59L320 60L319 59M339 59L340 60L339 59M359 59L360 60L359 59M379 59L380 60L379 59M399 59L400 60L399 59M419 59L420 60L419 59M439 59L440 60L439 59M459 59L460 60L459 59M479 59L480 60L479 59M499 59L500 60L499 59M519 59L520 60L519 59M539 59L540 60L539 59M559 59L560 60L559 59M579 59L580 60L579 59M599 59L600 60L599 59M619 59L620 60L619 59M639 59L640 60L639 59M659 59L660 60L659 59M679 59L680 60L679 59M699 59L700 60L699 59M719 59L720 60L719 59M463 71L442 93L463 72L464 72L466 74L463 71z"/>
<path style="fill:#797979; stroke:none;" d="M463 72C458.578 76.4221 444.237 86.4727 444.206 93C444.181 98.1158 453.035 105.581 455.691 110C462.535 121.39 466.688 133.851 468.572 147C472.456 174.112 461.108 201.338 443 221L443 222C447.375 226.375 457.504 240.793 463.961 240.793C468.124 240.793 472.872 232.948 475.1 230C484.555 217.492 491.735 202.26 495.346 187C504.104 149.988 496.344 95.9829 463 72z"/>
<path style="fill:#ffaf6f; stroke:none;" d="M466 74L467 75L466 74M467 75L468 76L467 75z"/>
<path style="fill:#797979; stroke:none;" d="M210 76C201.788 87.422 193.067 97.8355 187.594 111C168.001 158.132 179.09 211.086 215 247L216 247L236 226L236 225C200.082 188.983 199.279 135.361 232 97L232 96L210 76z"/>
<path style="fill:#ffaf6f; stroke:none;" d="M211 76L212 77L211 76z"/>
<path style="fill:#9f9e9d; stroke:none;" d="M212 77L213 78L212 77M208 78L209 79L208 78M213 78L214 79L213 78M469 78L470 79L469 78M19 79L20 80L19 79M39 79L40 80L39 79M59 79L60 80L59 79M79 79L80 80L79 79M99 79L100 80L99 79M119 79L120 80L119 79M139 79L140 80L139 79M159 79L160 80L159 79M179 79L180 80L179 79M199 79L200 80L199 79M207 79L208 80L207 79M214 79L215 80L214 79M219 79L220 80L219 79M239 79L240 80L239 79M259 79L260 80L259 79M279 79L280 80L279 79M299 79L300 80L299 79M319 79L320 80L319 79M339 79L340 80L339 79M359 79L360 80L359 79M379 79L380 80L379 79M399 79L400 80L399 79M419 79L420 80L419 79M439 79L440 80L439 79M470 79L471 80L470 79M479 79L480 80L479 79M499 79L500 80L499 79M519 79L520 80L519 79M539 79L540 80L539 79M559 79L560 80L559 79M579 79L580 80L579 79M599 79L600 80L599 79M619 79L620 80L619 79M639 79L640 80L639 79M659 79L660 80L659 79M679 79L680 80L679 79M699 79L700 80L699 79M719 79L720 80L719 79M206 80L207 81L206 80M215 80L216 81L215 80M471 80L472 81L471 80z"/>
<path style="fill:#ffaf6f; stroke:none;" d="M205 81L206 82L205 81z"/>
<path style="fill:#9f9e9d; stroke:none;" d="M216 81L217 82L216 81M472 81L473 82L472 81M205 82L206 83L205 82M217 82L218 83L217 82M473 82L474 83L473 82M204 83L205 84L204 83M218 83L219 84L218 83M203 84L204 85L203 84M219 84L220 85L219 84M474 84L475 85L474 84M202 85L203 86L202 85M475 85L476 86L475 85M201 86L202 87L201 86z"/>
<path style="fill:#ffaf6f; stroke:none;" d="M476 86L477 87L476 86z"/>
<path style="fill:#9f9e9d; stroke:none;" d="M200 88L201 89L200 88M477 88L478 89L477 88M199 89L200 90L199 89M478 89L479 90L478 89M479 91L480 92L479 91M197 92L198 93L197 92M480 92L481 93L480 92z"/>
<path style="fill:#ffaf6f; stroke:none;" d="M229 93L230 94L229 93M442 93L443 94L442 93z"/>
<path style="fill:#9f9e9d; stroke:none;" d="M196 94L197 95L196 94M230 94L231 95L230 94M443 94L444 95L443 94M481 94L482 95L481 94M195 95L196 96L195 95M231 95L232 96L231 95M444 95L445 96L444 95z"/>
<path style="fill:#ffaf6f; stroke:none;" d="M482 95L483 96L482 95M232 96L233 97L232 96z"/>
<path style="fill:#9f9e9d; stroke:none;" d="M445 96L446 97L445 96M482 96L483 97L482 96M194 97L195 98L194 97M231 97L232 98L231 97z"/>
<path style="fill:#ffaf6f; stroke:none;" d="M339 97L340 98L339 97z"/>
<path style="fill:#ff7202; stroke:none;" d="M340.1 97.8904C335.254 99.128 331.762 108.123 329.319 112C320.527 125.949 311.877 139.985 303.192 154C300.711 158.004 292.899 166.659 296.043 171.682C301.842 180.946 324.335 167.702 331.397 177.148C336.953 184.581 332.956 205.891 333.001 215C333.019 218.638 332.988 226.987 338.975 225.288C344.073 223.841 347.452 215.142 350.05 211C358.81 197.033 367.576 183.058 376.189 169C378.602 165.061 386.546 156.079 383.164 151.318C376.692 142.209 355.115 155.233 347.742 146.566C342.034 139.856 346.004 117.586 346 109C345.998 105.327 346.384 96.2853 340.1 97.8904z"/>
<path style="fill:#ffaf6f; stroke:none;" d="M343 97L344 98L343 97z"/>
<path style="fill:#9f9e9d; stroke:none;" d="M446 97L447 98L446 97M483.333 97.6667L483.667 98.3333L483.333 97.6667z"/>
<path style="fill:#ffaf6f; stroke:none;" d="M193 98L194 99L193 98z"/>
<path style="fill:#9f9e9d; stroke:none;" d="M230 98L231 99L230 98z"/>
<path style="fill:#ffaf6f; stroke:none;" d="M337 98L338 99L337 98M344 98L345 99L344 98z"/>
<path style="fill:#9f9e9d; stroke:none;" d="M447 98L448 99L447 98M19 99L20 100L19 99M39 99L40 100L39 99M59 99L60 100L59 99M79 99L80 100L79 99M99 99L100 100L99 99M119 99L120 100L119 99M139 99L140 100L139 99M159 99L160 100L159 99M179 99L180 100L179 99M193 99L194 100L193 99M229.333 99.6667L229.667 100.333L229.333 99.6667M239 99L240 100L239 99M259 99L260 100L259 99M279 99L280 100L279 99M299 99L300 100L299 99M319 99L320 100L319 99z"/>
<path style="fill:#ffaf6f; stroke:none;" d="M345 99L346 100L345 99z"/>
<path style="fill:#9f9e9d; stroke:none;" d="M359 99L360 100L359 99M379 99L380 100L379 99M399 99L400 100L399 99M419 99L420 100L419 99M439 99L440 100L439 99M448 99L449 100L448 99M484 99L485 100L484 99M499 99L500 100L499 99M519 99L520 100L519 99M539 99L540 100L539 99M559 99L560 100L559 99M579 99L580 100L579 99M599 99L600 100L599 99M619 99L620 100L619 99M639 99L640 100L639 99M659 99L660 100L659 99M679 99L680 100L679 99M699 99L700 100L699 99M719 99L720 100L719 99M192 100L193 101L192 100z"/>
<path style="fill:#ffaf6f; stroke:none;" d="M336 100L337 101L336 100z"/>
<path style="fill:#9f9e9d; stroke:none;" d="M228 101L229 102L228 101z"/>
<path style="fill:#ffaf6f; stroke:none;" d="M449 101L450 102L449 101z"/>
<path style="fill:#9f9e9d; stroke:none;" d="M485 101L486 102L485 101M191 102L192 103L191 102M227 102L228 103L227 102z"/>
<path style="fill:#ffaf6f; stroke:none;" d="M335 102L336 103L335 102z"/>
<path style="fill:#9f9e9d; stroke:none;" d="M450 102L451 103L450 102z"/>
<path style="fill:#ffaf6f; stroke:none;" d="M334 103L335 104L334 103z"/>
<path style="fill:#9f9e9d; stroke:none;" d="M451 103L452 104L451 103M486 103L487 104L486 103M190.333 104.667L190.667 105.333L190.333 104.667M225 105L226 106L225 105z"/>
<path style="fill:#ffaf6f; stroke:none;" d="M333 105L334 106L333 105z"/>
<path style="fill:#9f9e9d; stroke:none;" d="M452 105L453 106L452 105M487 105L488 106L487 105M189.333 106.667L189.667 107.333L189.333 106.667M224 106L225 107L224 106z"/>
<path style="fill:#ffaf6f; stroke:none;" d="M332 106L333 107L332 106z"/>
<path style="fill:#9f9e9d; stroke:none;" d="M453 106L454 107L453 106M223.333 107.667L223.667 108.333L223.333 107.667M454.333 107.667L454.667 108.333L454.333 107.667M488 107L489 108L488 107M188 108L189 109L188 108z"/>
<path style="fill:#ffaf6f; stroke:none;" d="M331 108L332 109L331 108z"/>
<path style="fill:#9f9e9d; stroke:none;" d="M222 109L223 110L222 109M455 109L456 110L455 109M489.333 109.667L489.667 110.333L489.333 109.667z"/>
<path style="fill:#ffaf6f; stroke:none;" d="M187 110L188 111L187 110z"/>
<path style="fill:#9f9e9d; stroke:none;" d="M221.333 110.667L221.667 111.333L221.333 110.667z"/>
<path style="fill:#ffaf6f; stroke:none;" d="M330 110L331 111L330 110M329 111L330 112L329 111z"/>
<path style="fill:#9f9e9d; stroke:none;" d="M456 111L457 112L456 111z"/>
<path style="fill:#ffaf6f; stroke:none;" d="M490 111L491 112L490 111z"/>
<path style="fill:#9f9e9d; stroke:none;" d="M220 112L221 113L220 112M490 112L491 113L490 112M186.333 113.667L186.667 114.333L186.333 113.667z"/>
<path style="fill:#ffaf6f; stroke:none;" d="M328 113L329 114L328 113M457 113L458 114L457 113z"/>
<path style="fill:#9f9e9d; stroke:none;" d="M219 114L220 115L219 114z"/>
<path style="fill:#ffaf6f; stroke:none;" d="M327 114L328 115L327 114z"/>
<path style="fill:#9f9e9d; stroke:none;" d="M458 114L459 115L458 114M491.333 114.667L491.667 115.333L491.333 114.667M185.333 115.667L185.667 116.333L185.333 115.667M419 115L409 126L419 115z"/>
<path style="fill:#797979; stroke:none;" d="M420 115C415.264 119.736 401.681 129.084 401.113 136C400.467 143.884 408.852 151.533 407.826 161C407.216 166.63 399.819 175.017 401.306 180C403.438 187.15 414.79 194.79 420 200L421 200C440.707 178.408 447.042 134.463 420 115z"/>
<path style="fill:#9f9e9d; stroke:none;" d="M421 115L422 116L421 115M218 116L219 117L218 116z"/>
<path style="fill:#ffaf6f; stroke:none;" d="M326 116L327 117L326 116z"/>
<path style="fill:#9f9e9d; stroke:none;" d="M422 116L423 117L422 116M459 116L460 117L459 116M217.333 117.667L217.667 118.333L217.333 117.667M423 117L424 118L423 117M492.333 117.667L492.667 118.333L492.333 117.667M184.333 118.667L184.667 119.333L184.333 118.667z"/>
<path style="fill:#797979; stroke:none;" d="M254 118C236.407 141.755 229.89 183.031 258 203L275.954 182L268.329 161L276 137L254 118z"/>
<path style="fill:#9f9e9d; stroke:none;" d="M255 118L256 119L255 118z"/>
<path style="fill:#ffaf6f; stroke:none;" d="M325 118L326 119L325 118M424 118L425 119L424 118z"/>
<path style="fill:#9f9e9d; stroke:none;" d="M460 118L459 120L461 120L460 118M19 119L20 120L19 119M39 119L40 120L39 119M59 119L60 120L59 119M79 119L80 120L79 119M99 119L100 120L99 119M119 119L120 120L119 119M139 119L140 120L139 119M159 119L160 120L159 119M179 119L180 120L179 119M216.333 119.667L216.667 120.333L216.333 119.667M219 119L220 120L219 119M239 119L240 120L239 119M259 119L260 120L259 119M279 119L280 120L279 119M299 119L300 120L299 119M319 119L320 120L319 119z"/>
<path style="fill:#ffaf6f; stroke:none;" d="M324 119L325 120L324 119z"/>
<path style="fill:#9f9e9d; stroke:none;" d="M359 119L360 120L359 119M379 119L380 120L379 119M399 119L400 120L399 119M439 119L440 120L439 119M499 119L500 120L499 119M519 119L520 120L519 119M539 119L540 120L539 119M559 119L560 120L559 119M579 119L580 120L579 119M599 119L600 120L599 119M619 119L620 120L619 119M639 119L640 120L639 119M659 119L660 120L659 119M679 119L680 120L679 119M699 119L700 120L699 119M719 119L720 120L719 119M252 120L253 121L252 120M461.333 120.667L461.667 121.333L461.333 120.667M493.333 120.667L493.667 121.333L493.333 120.667M183.333 121.667L183.667 122.333L183.333 121.667M251 121L252 122L251 121z"/>
<path style="fill:#ffaf6f; stroke:none;" d="M323 121L324 122L323 121z"/>
<path style="fill:#9f9e9d; stroke:none;" d="M426 121L427 122L426 121M215 122L216 123L215 122M250 122L251 123L250 122z"/>
<path style="fill:#ffaf6f; stroke:none;" d="M322 122L323 123L322 122z"/>
<path style="fill:#9f9e9d; stroke:none;" d="M462 123L463 124L462 123z"/>
<path style="fill:#ffaf6f; stroke:none;" d="M494 123L495 124L494 123z"/>
<path style="fill:#9f9e9d; stroke:none;" d="M182.333 124.667L182.667 125.333L182.333 124.667M214 124L215 125L214 124z"/>
<path style="fill:#ffaf6f; stroke:none;" d="M321 124L322 125L321 124z"/>
<path style="fill:#9f9e9d; stroke:none;" d="M428 124L429 125L428 124z"/>
<path style="fill:#ffaf6f; stroke:none;" d="M462 124L463 125L462 124z"/>
<path style="fill:#9f9e9d; stroke:none;" d="M494 124L495 125L494 124z"/>
<path style="fill:#ffaf6f; stroke:none;" d="M214 125L215 126L214 125z"/>
<path style="fill:#9f9e9d; stroke:none;" d="M248 125L249 126L248 125M213.333 126.667L213.667 127.333L213.333 126.667z"/>
<path style="fill:#ffaf6f; stroke:none;" d="M247 126L248 127L247 126M320 126L321 127L320 126M408 126L409 127L408 126z"/>
<path style="fill:#9f9e9d; stroke:none;" d="M429 126L430 127L429 126M463 126L464 127L463 126M181 127L181 130L182 130L181 127z"/>
<path style="fill:#ffaf6f; stroke:none;" d="M265 127L266 128L265 127M319 127L320 128L319 127M407 127L408 128L407 127z"/>
<path style="fill:#9f9e9d; stroke:none;" d="M430 127L431 128L430 127M495.333 127.667L495.667 128.333L495.333 127.667M246 128L247 129L246 128M266 128L267 129L266 128z"/>
<path style="fill:#ffaf6f; stroke:none;" d="M406 128L407 129L406 128z"/>
<path style="fill:#9f9e9d; stroke:none;" d="M267 129L268 130L267 129z"/>
<path style="fill:#ffaf6f; stroke:none;" d="M318 129L319 130L318 129M405 129L406 130L405 129z"/>
<path style="fill:#9f9e9d; stroke:none;" d="M431 129L432 130L431 129M464 129L465 130L464 129M212 130L213 131L212 130M245 130L246 131L245 130M268 130L269 131L268 130z"/>
<path style="fill:#ffaf6f; stroke:none;" d="M317 130L318 131L317 130M404 130L405 131L404 130z"/>
<path style="fill:#9f9e9d; stroke:none;" d="M180.333 131.667L180.667 132.333L180.333 131.667M269 131L270 132L269 131z"/>
<path style="fill:#ffaf6f; stroke:none;" d="M403 131L404 132L403 131z"/>
<path style="fill:#9f9e9d; stroke:none;" d="M432 131L433 132L432 131M465 131L465 134L466 134L465 131M496.333 131.667L496.667 132.333L496.333 131.667M211.333 132.667L211.667 133.333L211.333 132.667M244 132L245 133L244 132M270 132L271 133L270 132z"/>
<path style="fill:#ffaf6f; stroke:none;" d="M316 132L317 133L316 132M402 132L403 133L402 132z"/>
<path style="fill:#9f9e9d; stroke:none;" d="M271 133L272 134L271 133M433 133L434 134L433 133M243 134L244 135L243 134M272 134L273 135L272 134z"/>
<path style="fill:#ffaf6f; stroke:none;" d="M315 134L316 135L315 134z"/>
<path style="fill:#9f9e9d; stroke:none;" d="M273 135L274 136L273 135z"/>
<path style="fill:#ffaf6f; stroke:none;" d="M314 135L315 136L314 135z"/>
<path style="fill:#9f9e9d; stroke:none;" d="M179 136L179 139L180 139L179 136M210.333 136.667L210.667 137.333L210.333 136.667M242 136L243 137L242 136M274 136L275 137L274 136M399 136L400 137L399 136M434 136L435 137L434 136M466.333 136.667L466.667 137.333L466.333 136.667M497 136L497 139L498 139L497 136z"/>
<path style="fill:#ffaf6f; stroke:none;" d="M313 137L314 138L313 137z"/>
<path style="fill:#9f9e9d; stroke:none;" d="M400 137L401 138L400 137M276 138L277 139L276 138z"/>
<path style="fill:#ffaf6f; stroke:none;" d="M312 138L313 139L312 138z"/>
<path style="fill:#9f9e9d; stroke:none;" d="M401 138L402 139L401 138M19 139L20 140L19 139M39 139L40 140L39 139M59 139L60 140L59 139M79 139L80 140L79 139M99 139L100 140L99 139M119 139L120 140L119 139M139 139L140 140L139 139M159 139L160 140L159 139M219 139L220 140L219 139M239 139L240 140L239 139M241.333 139.667L241.667 140.333L241.333 139.667M275 139L276 140L275 139M279 139L280 140L279 139M299 139L300 140L299 139M359 139L360 140L359 139M379 139L380 140L379 139M399 139L400 140L399 139M435 139L436 140L435 139M439 139L440 140L439 139M459 139L460 140L459 139M499 139L500 140L499 139M519 139L520 140L519 139M539 139L540 140L539 139M559 139L560 140L559 139M579 139L580 140L579 139M599 139L600 140L599 139M619 139L620 140L619 139M639 139L640 140L639 139M659 139L660 140L659 139M679 139L680 140L679 139M699 139L700 140L699 139M719 139L720 140L719 139M209.333 140.667L209.667 141.333L209.333 140.667z"/>
<path style="fill:#ffaf6f; stroke:none;" d="M311 140L312 141L311 140z"/>
<path style="fill:#9f9e9d; stroke:none;" d="M467 140L467 143L468 143L467 140M403 141L404 142L403 141M178 142L178 146L179 146L178 142z"/>
<path style="fill:#ffaf6f; stroke:none;" d="M209 142L210 143L209 142z"/>
<path style="fill:#9f9e9d; stroke:none;" d="M240.333 142.667L240.667 143.333L240.333 142.667M273 142L274 143L273 142z"/>
<path style="fill:#ffaf6f; stroke:none;" d="M310 142L311 143L310 142z"/>
<path style="fill:#9f9e9d; stroke:none;" d="M436.333 142.667L436.667 143.333L436.333 142.667z"/>
<path style="fill:#ffaf6f; stroke:none;" d="M309 143L310 144L309 143z"/>
<path style="fill:#9f9e9d; stroke:none;" d="M404 143L405 144L404 143z"/>
<path style="fill:#ffaf6f; stroke:none;" d="M498 143L499 144L498 143z"/>
<path style="fill:#9f9e9d; stroke:none;" d="M272 144L273 145L272 144M498 144L498 149L499 149L498 144M208 145L208 150L209 150L208 145z"/>
<path style="fill:#ffaf6f; stroke:none;" d="M308 145L309 146L308 145M346 145L347 146L346 145z"/>
<path style="fill:#9f9e9d; stroke:none;" d="M405 145L406 146L405 145M239 146L239 149L240 149L239 146M271 146L272 147L271 146z"/>
<path style="fill:#ffaf6f; stroke:none;" d="M307.333 146.667L307.667 147.333L307.333 146.667M437 146L438 147L437 146z"/>
<path style="fill:#9f9e9d; stroke:none;" d="M468 146L468 152L469 152L468 146z"/>
<path style="fill:#ffaf6f; stroke:none;" d="M347 147L348 148L347 147z"/>
<path style="fill:#9f9e9d; stroke:none;" d="M406.333 147.667L406.667 148.333L406.333 147.667M437 147L437 150L438 150L437 147M270 148L271 149L270 148z"/>
<path style="fill:#ffaf6f; stroke:none;" d="M306 148L307 149L306 148M349.667 148.333L350.333 148.667L349.667 148.333M382 149L383 150L382 149M305 150L306 151L305 150M383 150L384 151L383 150z"/>
<path style="fill:#9f9e9d; stroke:none;" d="M269 151L270 152L269 151z"/>
<path style="fill:#ffaf6f; stroke:none;" d="M304 151L305 152L304 151M384.333 151.667L384.667 152.333L384.333 151.667z"/>
<path style="fill:#9f9e9d; stroke:none;" d="M407.333 151.667L407.667 152.333L407.333 151.667z"/>
<path style="fill:#ffaf6f; stroke:none;" d="M177 152L178 153L177 152z"/>
<path style="fill:#9f9e9d; stroke:none;" d="M238 152L238 167L239 167L238 152z"/>
<path style="fill:#ffaf6f; stroke:none;" d="M269 152L270 153L269 152M468 152L469 153L468 152z"/>
<path style="fill:#9f9e9d; stroke:none;" d="M177 153L177 165L178 165L177 153z"/>
<path style="fill:#ffaf6f; stroke:none;" d="M303 153L304 154L303 153M407 153L408 154L407 153M384.333 154.667L384.667 155.333L384.333 154.667M302 155L303 156L302 155z"/>
<path style="fill:#9f9e9d; stroke:none;" d="M268 156L268 163L269 163L268 156z"/>
<path style="fill:#ffaf6f; stroke:none;" d="M301 156L302 157L301 156M383 157L384 158L383 157M438 157L439 158L438 157z"/>
<path style="fill:#9f9e9d; stroke:none;" d="M207 158L208 159L207 158z"/>
<path style="fill:#ffaf6f; stroke:none;" d="M300 158L301 159L300 158M382 158L383 159L382 158z"/>
<path style="fill:#9f9e9d; stroke:none;" d="M19 159L20 160L19 159M39 159L40 160L39 159M59 159L60 160L59 159M79 159L80 160L79 159M99 159L100 160L99 159M119 159L120 160L119 159M139 159L140 160L139 159M159 159L160 160L159 159M219 159L220 160L219 159M279 159L280 160L279 159z"/>
<path style="fill:#797979; stroke:none;" d="M299 159L300 160L299 159z"/>
<path style="fill:#9f9e9d; stroke:none;" d="M399 159L400 160L399 159M439 159L440 160L439 159M459 159L460 160L459 159z"/>
<path style="fill:#ffaf6f; stroke:none;" d="M468 159L468 162L469 162L468 159z"/>
<path style="fill:#9f9e9d; stroke:none;" d="M519 159L520 160L519 159M539 159L540 160L539 159M559 159L560 160L559 159M579 159L580 160L579 159M599 159L600 160L599 159M619 159L620 160L619 159M639 159L640 160L639 159M659 159L660 160L659 159M679 159L680 160L679 159M699 159L700 160L699 159M719 159L720 160L719 159z"/>
<path style="fill:#ffaf6f; stroke:none;" d="M381 160L382 161L381 160M298 161L299 162L298 161M380 161L381 162L380 161M407 161L408 162L407 161z"/>
<path style="fill:#9f9e9d; stroke:none;" d="M207 162L208 163L207 162M407.333 162.667L407.667 163.333L407.333 162.667M468 162L468 168L469 168L468 162z"/>
<path style="fill:#ffaf6f; stroke:none;" d="M297 163L298 164L297 163M379 163L380 164L379 163M296 164L297 165L296 164M177 165L178 166L177 165M378 165L379 166L378 165z"/>
<path style="fill:#9f9e9d; stroke:none;" d="M437 165L437 168L438 168L437 165M498 165L498 171L499 171L498 165M269.333 166.667L269.667 167.333L269.333 166.667z"/>
<path style="fill:#ffaf6f; stroke:none;" d="M295 166L296 167L295 166M377 166L378 167L377 166z"/>
<path style="fill:#9f9e9d; stroke:none;" d="M406.333 166.667L406.667 167.333L406.333 166.667z"/>
<path style="fill:#ffaf6f; stroke:none;" d="M294 168L294 171L295 171L294 168M376 168L377 169L376 168z"/>
<path style="fill:#9f9e9d; stroke:none;" d="M208 169L208 173L209 173L208 169z"/>
<path style="fill:#ffaf6f; stroke:none;" d="M270 169L271 170L270 169z"/>
<path style="fill:#9f9e9d; stroke:none;" d="M405 169L406 170L405 169M239.333 170.667L239.667 171.333L239.333 170.667M270 170L271 171L270 170z"/>
<path style="fill:#ffaf6f; stroke:none;" d="M375 170L376 171L375 170z"/>
<path style="fill:#9f9e9d; stroke:none;" d="M436.333 170.667L436.667 171.333L436.333 170.667z"/>
<path style="fill:#ffaf6f; stroke:none;" d="M374 171L375 172L374 171z"/>
<path style="fill:#9f9e9d; stroke:none;" d="M404 171L405 172L404 171z"/>
<path style="fill:#ffaf6f; stroke:none;" d="M467 171L468 172L467 171M498 171L499 172L498 171z"/>
<path style="fill:#9f9e9d; stroke:none;" d="M178 172L178 176L179 176L178 172z"/>
<path style="fill:#ffaf6f; stroke:none;" d="M239 172L240 173L239 172z"/>
<path style="fill:#9f9e9d; stroke:none;" d="M271 172L272 173L271 172z"/>
<path style="fill:#ffaf6f; stroke:none;" d="M295 172L296 173L295 172M436 172L437 173L436 172z"/>
<path style="fill:#9f9e9d; stroke:none;" d="M467 172L467 175L468 175L467 172z"/>
<path style="fill:#ffaf6f; stroke:none;" d="M296 173L297 174L296 173M373 173L374 174L373 173z"/>
<path style="fill:#9f9e9d; stroke:none;" d="M403 173L404 174L403 173M240.333 174.667L240.667 175.333L240.333 174.667M272 174L273 175L272 174z"/>
<path style="fill:#ffaf6f; stroke:none;" d="M298 174L298 175L330 175L298 174M372 174L373 175L372 174M330 175L331 176L330 175z"/>
<path style="fill:#9f9e9d; stroke:none;" d="M435 175L436 176L435 175z"/>
<path style="fill:#ffaf6f; stroke:none;" d="M178 176L179 177L178 176z"/>
<path style="fill:#9f9e9d; stroke:none;" d="M209.333 176.667L209.667 177.333L209.333 176.667z"/>
<path style="fill:#ffaf6f; stroke:none;" d="M371 176L372 177L371 176z"/>
<path style="fill:#9f9e9d; stroke:none;" d="M401 176L402 177L401 176M497.333 176.667L497.667 177.333L497.333 176.667M274 177L275 178L274 177z"/>
<path style="fill:#ffaf6f; stroke:none;" d="M332 177L333 178L332 177z"/>
<path style="fill:#9f9e9d; stroke:none;" d="M400 177L401 178L400 177M466.333 177.667L466.667 178.333L466.333 177.667M241 178L242 179L241 178M275 178L276 179L275 178z"/>
<path style="fill:#ffaf6f; stroke:none;" d="M370 178L371 179L370 178M399 178L400 179L399 178z"/>
<path style="fill:#9f9e9d; stroke:none;" d="M434 178L435 179L434 178z"/>
<path style="fill:#ffaf6f; stroke:none;" d="M497 178L498 179L497 178z"/>
<path style="fill:#9f9e9d; stroke:none;" d="M19 179L20 180L19 179M39 179L40 180L39 179M59 179L60 180L59 179M79 179L80 180L79 179M99 179L100 180L99 179M119 179L120 180L119 179M139 179L140 180L139 179M159 179L160 180L159 179M219 179L220 180L219 179M239 179L240 180L239 179M276 179L277 180L276 179M279 179L280 180L279 179M299 179L300 180L299 179M319 179L320 180L319 179z"/>
<path style="fill:#ffaf6f; stroke:none;" d="M369 179L370 180L369 179z"/>
<path style="fill:#9f9e9d; stroke:none;" d="M379 179L380 180L379 179M399 179L400 180L399 179M439 179L440 180L439 179M459 179L460 180L459 179M499 179L500 180L499 179M519 179L520 180L519 179M539 179L540 180L539 179M559 179L560 180L559 179M579 179L580 180L579 179M599 179L600 180L599 179M619 179L620 180L619 179M639 179L640 180L639 179M659 179L660 180L659 179M679 179L680 180L679 179M699 179L700 180L699 179M719 179L720 180L719 179M179 180L179 183L180 183L179 180z"/>
<path style="fill:#ffaf6f; stroke:none;" d="M210 180L211 181L210 180z"/>
<path style="fill:#9f9e9d; stroke:none;" d="M277.333 180.667L277.667 181.333L277.333 180.667M433 180L434 181L433 180M210.333 181.667L210.667 182.333L210.333 181.667M242 181L243 182L242 181z"/>
<path style="fill:#ffaf6f; stroke:none;" d="M368 181L369 182L368 181M433 181L434 182L433 181z"/>
<path style="fill:#9f9e9d; stroke:none;" d="M465.333 181.667L465.667 182.333L465.333 181.667M496.333 181.667L496.667 182.333L496.333 181.667M276 182L277 183L276 182z"/>
<path style="fill:#ffaf6f; stroke:none;" d="M367 182L368 183L367 182z"/>
<path style="fill:#9f9e9d; stroke:none;" d="M243 183L244 184L243 183M432 183L433 184L432 183z"/>
<path style="fill:#ffaf6f; stroke:none;" d="M496 183L497 184L496 183M366 184L367 185L366 184M464 184L465 185L464 184z"/>
<path style="fill:#9f9e9d; stroke:none;" d="M180 185L180 188L181 188L180 185M211 185L212 186L211 185M244 185L245 186L244 185M431 185L432 186L431 185M464 185L465 186L464 185z"/>
<path style="fill:#ffaf6f; stroke:none;" d="M365 186L366 187L365 186z"/>
<path style="fill:#9f9e9d; stroke:none;" d="M495.333 186.667L495.667 187.333L495.333 186.667M245 187L246 188L245 187z"/>
<path style="fill:#ffaf6f; stroke:none;" d="M364 187L365 188L364 187M463 187L464 188L463 187z"/>
<path style="fill:#9f9e9d; stroke:none;" d="M212 188L213 189L212 188z"/>
<path style="fill:#ffaf6f; stroke:none;" d="M245 188L246 189L245 188z"/>
<path style="fill:#9f9e9d; stroke:none;" d="M429 188L430 189L429 188M463 188L464 189L463 188M246 189L247 190L246 189z"/>
<path style="fill:#ffaf6f; stroke:none;" d="M363 189L364 190L363 189z"/>
<path style="fill:#9f9e9d; stroke:none;" d="M181 190L182 191L181 190z"/>
<path style="fill:#ffaf6f; stroke:none;" d="M213 190L214 191L213 190M362.333 190.667L362.667 191.333L362.333 190.667z"/>
<path style="fill:#9f9e9d; stroke:none;" d="M428 190L429 191L428 190M462.333 190.667L462.667 191.333L462.333 190.667M494 190L495 191L494 190z"/>
<path style="fill:#ffaf6f; stroke:none;" d="M181 191L182 192L181 191z"/>
<path style="fill:#9f9e9d; stroke:none;" d="M213 191L214 192L213 191M247 191L248 192L247 191M427 191L428 192L427 191z"/>
<path style="fill:#ffaf6f; stroke:none;" d="M494 191L495 192L494 191z"/>
<path style="fill:#9f9e9d; stroke:none;" d="M248 192L249 193L248 192z"/>
<path style="fill:#ffaf6f; stroke:none;" d="M267 192L268 193L267 192M361 192L362 193L361 192z"/>
<path style="fill:#9f9e9d; stroke:none;" d="M182.333 193.667L182.667 194.333L182.333 193.667M214.333 193.667L214.667 194.333L214.333 193.667M266 193L267 194L266 193M426 193L427 194L426 193M461 193L462 194L461 193M493.333 193.667L493.667 194.333L493.333 193.667M249 194L250 195L249 194M265 194L266 195L265 194z"/>
<path style="fill:#ffaf6f; stroke:none;" d="M360 194L361 195L360 194z"/>
<path style="fill:#9f9e9d; stroke:none;" d="M425 194L426 195L425 194M250 195L251 196L250 195M264 195L265 196L264 195z"/>
<path style="fill:#ffaf6f; stroke:none;" d="M359 195L360 196L359 195z"/>
<path style="fill:#9f9e9d; stroke:none;" d="M460.333 195.667L460.667 196.333L460.333 195.667M183.333 196.667L183.667 197.333L183.333 196.667M215 196L216 197L215 196M263 196L264 197L263 196M492.333 196.667L492.667 197.333L492.333 196.667M262 197L263 198L262 197z"/>
<path style="fill:#ffaf6f; stroke:none;" d="M358 197L359 198L358 197z"/>
<path style="fill:#9f9e9d; stroke:none;" d="M459 197L460 198L459 197M216 198L217 199L216 198z"/>
<path style="fill:#ffaf6f; stroke:none;" d="M252 198L253 199L252 198z"/>
<path style="fill:#9f9e9d; stroke:none;" d="M261 198L262 199L261 198M422 198L423 199L422 198M19 199L20 200L19 199M39 199L40 200L39 199M59 199L60 200L59 199M79 199L80 200L79 199M99 199L100 200L99 199M119 199L120 200L119 199M139 199L140 200L139 199M159 199L160 200L159 199M179 199L180 200L179 199M184 199L185 200L184 199M219 199L220 200L219 199M239 199L240 200L239 199M253 199L254 200L253 199M260 199L261 200L260 199M279 199L280 200L279 199M299 199L300 200L299 199M319 199L320 200L319 199z"/>
<path style="fill:#ffaf6f; stroke:none;" d="M357 199L358 200L357 199z"/>
<path style="fill:#9f9e9d; stroke:none;" d="M359 199L360 200L359 199M379 199L380 200L379 199M399 199L400 200L399 199M419 199L420 200L419 199M421 199L422 200L421 199M439 199L440 200L439 199M458 199L459 200L458 199M491 199L492 200L491 199M499 199L500 200L499 199M519 199L520 200L519 199M539 199L540 200L539 199M559 199L560 200L559 199M579 199L580 200L579 199M599 199L600 200L599 199M619 199L620 200L619 199M639 199L640 200L639 199M659 199L660 200L659 199M679 199L680 200L679 199M699 199L700 200L699 199M719 199L720 200L719 199z"/>
<path style="fill:#ffaf6f; stroke:none;" d="M184 200L185 201L184 200z"/>
<path style="fill:#9f9e9d; stroke:none;" d="M217 200L218 201L217 200M254 200L255 201L254 200M259 200L260 201L259 200z"/>
<path style="fill:#ffaf6f; stroke:none;" d="M356 200L357 201L356 200z"/>
<path style="fill:#9f9e9d; stroke:none;" d="M255 201L256 202L255 201M457 201L458 202L457 201M185 202L186 203L185 202M218 202L219 203L218 202M256 202L257 203L256 202z"/>
<path style="fill:#ffaf6f; stroke:none;" d="M355 202L356 203L355 202z"/>
<path style="fill:#9f9e9d; stroke:none;" d="M490 202L491 203L490 202z"/>
<path style="fill:#ffaf6f; stroke:none;" d="M354 203L355 204L354 203z"/>
<path style="fill:#9f9e9d; stroke:none;" d="M456 203L457 204L456 203M219 204L220 205L219 204z"/>
<path style="fill:#ffaf6f; stroke:none;" d="M455 204L456 205L455 204z"/>
<path style="fill:#9f9e9d; stroke:none;" d="M489 204L490 205L489 204M186 205L187 206L186 205z"/>
<path style="fill:#ffaf6f; stroke:none;" d="M353 205L354 206L353 205M489 205L490 206L489 205z"/>
<path style="fill:#9f9e9d; stroke:none;" d="M454 206L455 207L454 206M488.333 206.667L488.667 207.333L488.333 206.667M187 207L188 208L187 207M221 207L222 208L221 207z"/>
<path style="fill:#ffaf6f; stroke:none;" d="M352 207L353 208L352 207M187 208L188 209L187 208M351 208L352 209L351 208z"/>
<path style="fill:#9f9e9d; stroke:none;" d="M453 208L454 209L453 208M188.333 209.667L188.667 210.333L188.333 209.667M222 209L223 210L222 209M452 209L453 210L452 209M487 209L488 210L487 209M223 210L224 211L223 210z"/>
<path style="fill:#ffaf6f; stroke:none;" d="M350 210L351 211L350 210z"/>
<path style="fill:#9f9e9d; stroke:none;" d="M451.333 210.667L451.667 211.333L451.333 210.667M189.333 211.667L189.667 212.333L189.333 211.667z"/>
<path style="fill:#ffaf6f; stroke:none;" d="M349 211L350 212L349 211z"/>
<path style="fill:#9f9e9d; stroke:none;" d="M486 211L487 212L486 211M450 212L451 213L450 212M190.333 213.667L190.667 214.333L190.333 213.667M225 213L226 214L225 213z"/>
<path style="fill:#ffaf6f; stroke:none;" d="M348 213L349 214L348 213z"/>
<path style="fill:#9f9e9d; stroke:none;" d="M449 213L450 214L449 213M485 213L486 214L485 213M226 214L227 215L226 214M448 214L449 215L448 214M484.333 214.667L484.667 215.333L484.333 214.667M191 215L192 216L191 215z"/>
<path style="fill:#ffaf6f; stroke:none;" d="M347 215L348 216L347 215M447 215L448 216L447 215M191 216L192 217L191 216M346 216L347 217L346 216z"/>
<path style="fill:#9f9e9d; stroke:none;" d="M483 216L484 217L483 216M192 217L193 218L192 217M228 217L229 218L228 217M446 217L447 218L446 217z"/>
<path style="fill:#ffaf6f; stroke:none;" d="M483 217L484 218L483 217z"/>
<path style="fill:#9f9e9d; stroke:none;" d="M229 218L230 219L229 218z"/>
<path style="fill:#ffaf6f; stroke:none;" d="M345 218L346 219L345 218z"/>
<path style="fill:#9f9e9d; stroke:none;" d="M445 218L446 219L445 218M482 218L483 219L482 218M19 219L20 220L19 219M39 219L40 220L39 219M59 219L60 220L59 219M79 219L80 220L79 219M99 219L100 220L99 219M119 219L120 220L119 219M139 219L140 220L139 219M159 219L160 220L159 219M179 219L180 220L179 219M193 219L194 220L193 219M230 219L231 220L230 219M239 219L240 220L239 219M259 219L260 220L259 219M279 219L280 220L279 219M299 219L300 220L299 219M319 219L320 220L319 219z"/>
<path style="fill:#ffaf6f; stroke:none;" d="M344.333 219.667L344.667 220.333L344.333 219.667z"/>
<path style="fill:#9f9e9d; stroke:none;" d="M359 219L360 220L359 219M379 219L380 220L379 219M399 219L400 220L399 219M419 219L420 220L419 219M439 219L440 220L439 219M444 219L445 220L444 219M499 219L500 220L499 219M519 219L520 220L519 219M539 219L540 220L539 219M559 219L560 220L559 219M579 219L580 220L579 219M599 219L600 220L599 219M619 219L620 220L619 219M639 219L640 220L639 219M659 219L660 220L659 219M679 219L680 220L679 219M699 219L700 220L699 219M719 219L720 220L719 219M231 220L232 221L231 220M443 220L444 221L443 220M481 220L482 221L481 220M194 221L195 222L194 221z"/>
<path style="fill:#ffaf6f; stroke:none;" d="M232 221L233 222L232 221M343 221L344 222L343 221z"/>
<path style="fill:#9f9e9d; stroke:none;" d="M480 221L481 222L480 221z"/>
<path style="fill:#ffaf6f; stroke:none;" d="M233 222L234 223L233 222M333.333 222.667L333.667 223.333L333.333 222.667z"/>
<path style="fill:#9f9e9d; stroke:none;" d="M443 222L444 223L443 222z"/>
<path style="fill:#ffaf6f; stroke:none;" d="M195 223L196 224L195 223M342 223L343 224L342 223z"/>
<path style="fill:#9f9e9d; stroke:none;" d="M444 223L445 224L444 223M479 223L480 224L479 223M196 224L197 225L196 224z"/>
<path style="fill:#ffaf6f; stroke:none;" d="M341 224L342 225L341 224z"/>
<path style="fill:#9f9e9d; stroke:none;" d="M445 224L446 225L445 224z"/>
<path style="fill:#ffaf6f; stroke:none;" d="M335 225L336 226L335 225M340 225L341 226L340 225z"/>
<path style="fill:#9f9e9d; stroke:none;" d="M446 225L447 226L446 225z"/>
<path style="fill:#ffaf6f; stroke:none;" d="M197 226L198 227L197 226z"/>
<path style="fill:#9f9e9d; stroke:none;" d="M447 226L448 227L447 226M477 226L478 227L477 226M198 227L199 228L198 227M448 227L449 228L448 227M449 228L450 229L449 228z"/>
<path style="fill:#ffaf6f; stroke:none;" d="M232 229L233 230L232 229z"/>
<path style="fill:#9f9e9d; stroke:none;" d="M450 229L451 230L450 229M475 229L476 230L475 229M200 230L201 231L200 230M231 230L232 231L231 230M451 230L452 231L451 230M474 230L475 231L474 230M201 231L202 232L201 231M230 231L231 232L230 231M452 231L453 232L452 231M229 232L230 233L229 232M453 232L454 233L453 232z"/>
<path style="fill:#ffaf6f; stroke:none;" d="M473 232L474 233L473 232z"/>
<path style="fill:#9f9e9d; stroke:none;" d="M228 233L229 234L228 233M454 233L455 234L454 233M472 233L473 234L472 233M203 234L204 235L203 234M227 234L228 235L227 234M455 234L456 235L455 234M471 234L472 235L471 234M204 235L205 236L204 235M226 235L227 236L226 235M456 235L457 236L456 235M470 235L471 236L470 235M225 236L226 237L225 236M457 236L458 237L457 236M469 236L470 237L469 236M224 237L225 238L224 237M458 237L459 238L458 237M468 237L469 238L468 237z"/>
<path style="fill:#ffaf6f; stroke:none;" d="M206 238L207 239L206 238z"/>
<path style="fill:#9f9e9d; stroke:none;" d="M459 238L459 240L461 240L459 238M19 239L20 240L19 239M39 239L40 240L39 239M59 239L60 240L59 239M79 239L80 240L79 239M99 239L100 240L99 239M119 239L120 240L119 239M139 239L140 240L139 239M159 239L160 240L159 239M179 239L180 240L179 239M199 239L200 240L199 239M207 239L208 240L207 239M239 239L240 240L239 239M259 239L260 240L259 239M279 239L280 240L279 239M299 239L300 240L299 239M319 239L320 240L319 239M339 239L340 240L339 239M359 239L360 240L359 239M379 239L380 240L379 239M399 239L400 240L399 239M419 239L420 240L419 239M439 239L440 240L439 239M479 239L480 240L479 239M499 239L500 240L499 239M519 239L520 240L519 239M539 239L540 240L539 239M559 239L560 240L559 239M579 239L580 240L579 239M599 239L600 240L599 239M619 239L620 240L619 239M639 239L640 240L639 239M659 239L660 240L659 239M679 239L680 240L679 239M699 239L700 240L699 239M719 239L720 240L719 239M208 240L209 241L208 240M461 240L462 241L461 240z"/>
<path style="fill:#ffaf6f; stroke:none;" d="M466 240L467 241L466 240z"/>
<path style="fill:#9f9e9d; stroke:none;" d="M209 241L210 242L209 241M462 241L463 242L462 241M465 241L466 242L465 241M210 242L211 243L210 242M463.667 242.333L464.333 242.667L463.667 242.333M211 243L212 244L211 243M212 244L213 245L212 244M213 245L214 246L213 245M214 246L215 247L214 246z"/>
<path style="fill:#ffaf6f; stroke:none;" d="M550 253L551 254L550 253z"/>
<path style="fill:#797979; stroke:none;" d="M550 373C554.134 373 565.158 374.95 567.972 371.397C570.423 368.302 569 360.731 569 357C569 342.834 561.636 303.656 585 305.402C596.783 306.283 596 321.749 596 330L596 361C596 363.98 594.927 369.853 597.603 371.972C601.161 374.79 610.637 373 615 373C615 352.128 618.087 328.394 613.1 308C609.557 293.511 596.198 286.712 582 289.11C577.073 289.943 573.199 292.474 569 295C569 284.678 572.939 264.549 568.397 255.318C566.532 251.528 552.468 251.528 550.603 255.318C546.702 263.247 550 280.167 550 289L550 373z"/>
<path style="fill:#ffaf6f; stroke:none;" d="M568 253L569 254L568 253z"/>
<path style="fill:#9f9e9d; stroke:none;" d="M428 256L429 257L428 256z"/>
<path style="fill:#797979; stroke:none;" d="M429.015 256.654C416.225 260.704 421.851 281.695 434.999 278.157C448.803 274.442 442.82 252.282 429.015 256.654z"/>
<path style="fill:#9f9e9d; stroke:none;" d="M436 256L437 257L436 256M426 257L427 258L426 257M438 257L439 258L438 257M439 258L440 259L439 258M19 259L20 260L19 259M39 259L40 260L39 259M59 259L60 260L59 259M79 259L80 260L79 259M99 259L100 260L99 259M119 259L120 260L119 259M139 259L140 260L139 259M159 259L160 260L159 259M179 259L180 260L179 259M199 259L200 260L199 259M219 259L220 260L219 259M239 259L240 260L239 259M259 259L260 260L259 259M279 259L280 260L279 259M299 259L300 260L299 259M319 259L320 260L319 259M339 259L340 260L339 259M359 259L360 260L359 259M379 259L380 260L379 259M399 259L400 260L399 259M419 259L420 260L419 259M440 259L441 260L440 259M459 259L460 260L459 259M479 259L480 260L479 259M499 259L500 260L499 259M519 259L520 260L519 259M539 259L540 260L539 259M579 259L580 260L579 259M599 259L600 260L599 259M619 259L620 260L619 259M639 259L640 260L639 259M659 259L660 260L659 259M679 259L680 260L679 259M699 259L700 260L699 259M719 259L720 260L719 259M423 260L424 261L423 260M441 260L442 261L441 260z"/>
<path style="fill:#ffaf6f; stroke:none;" d="M327 261L328 262L327 261z"/>
<path style="fill:#ff7202; stroke:none;" d="M328.015 261.654C315.227 265.717 321.52 286.537 334.96 282.49C347.925 278.586 341.483 257.374 328.015 261.654z"/>
<path style="fill:#ffaf6f; stroke:none;" d="M335 261L336 262L335 261z"/>
<path style="fill:#9f9e9d; stroke:none;" d="M355 261L356 262L355 261z"/>
<path style="fill:#797979; stroke:none;" d="M412 373L412 356L386 356C382.899 356 378.029 356.822 375.603 354.397C371.415 350.208 374 335.602 374 330L374 261L356.028 262.603L355 287L355 349L356.028 371.397L370 373L412 373z"/>
<path style="fill:#9f9e9d; stroke:none;" d="M422 261L423 262L422 261z"/>
<path style="fill:#ffaf6f; stroke:none;" d="M325 262L326 263L325 262M337 262L338 263L337 262z"/>
<path style="fill:#9f9e9d; stroke:none;" d="M374 262L374 355L375 355L375 291L374 262M442 262L443 263L442 262M421.333 264.667L421.667 265.333L421.333 264.667M443 264L443 270L444 270L443 264z"/>
<path style="fill:#ffaf6f; stroke:none;" d="M322 265L323 266L322 265M340 265L341 266L340 265M39 266L40 267L39 266z"/>
<path style="fill:#ff7202; stroke:none;" d="M58 358L58 266C53.866 266 42.842 264.05 40.0278 267.603C36.6505 271.867 39 284.722 39 290L39 350C39 355.602 36.4148 370.208 40.6034 374.397C43.3373 377.131 49.4969 376 53 376L82 376C85.1215 376 90.7786 377.046 93.3966 374.972C95.36 373.417 94.985 370.209 94.9992 368C95.0812 355.276 86.3122 358 76 358L58 358z"/>
<path style="fill:#ffaf6f; stroke:none;" d="M58 267L58 358L59 358L59 295L58 267M321 267L322 268L321 267M341 267L342 268L341 267z"/>
<path style="fill:#9f9e9d; stroke:none;" d="M421 268L421 271L422 271L421 268z"/>
<path style="fill:#ffaf6f; stroke:none;" d="M644 268L645 269L644 268z"/>
<path style="fill:#9f9e9d; stroke:none;" d="M645 268L645 269L661 269L645 268M643.333 269.667L643.667 270.333L643.333 269.667z"/>
<path style="fill:#797979; stroke:none;" d="M643 291C639.855 291 634.223 289.953 631.603 292.028C628.904 294.166 628.904 304.834 631.603 306.972C634.223 309.047 639.855 308 643 308C643 322.334 642.472 336.741 643.83 351C644.459 357.601 643.629 364.362 648.533 369.671C653.755 375.323 673.636 379.031 678.972 371.487C681.533 367.867 679.518 359.698 678 356C674.219 357.23 668.923 360.116 665.228 357.382C661.178 354.384 662 348.398 662 344L662 308L677 308L677 291L662 291L662 269C657.699 269 648.225 267.21 644.742 270.028C640.739 273.267 643 286.277 643 291z"/>
<path style="fill:#ffaf6f; stroke:none;" d="M320 270L320 275L321 275L320 270M342 270L342 274L343 274L342 270M443 270L444 271L443 270z"/>
<path style="fill:#9f9e9d; stroke:none;" d="M422 272L423 273L422 272M442 272L443 273L442 272M423 274L424 275L423 274M441 274L442 275L441 274M424 275L425 276L424 275M440 275L441 276L440 275z"/>
<path style="fill:#ffaf6f; stroke:none;" d="M321 276L322 277L321 276z"/>
<path style="fill:#9f9e9d; stroke:none;" d="M425 276L426 277L425 276M439 276L440 277L439 276z"/>
<path style="fill:#ffaf6f; stroke:none;" d="M341 277L342 278L341 277M426 277L427 278L426 277z"/>
<path style="fill:#9f9e9d; stroke:none;" d="M437 277L438 278L437 277z"/>
<path style="fill:#ffaf6f; stroke:none;" d="M322 278L323 279L322 278z"/>
<path style="fill:#9f9e9d; stroke:none;" d="M429.667 278.333L430.333 278.667L429.667 278.333M434.667 278.333L435.333 278.667L434.667 278.333M19 279L20 280L19 279M59 279L60 280L59 279M79 279L80 280L79 279M99 279L100 280L99 279M119 279L120 280L119 279M139 279L140 280L139 279M159 279L160 280L159 279M179 279L180 280L179 279M199 279L200 280L199 279M219 279L220 280L219 279M239 279L240 280L239 279M259 279L260 280L259 279M279 279L280 280L279 279M299 279L300 280L299 279M319 279L320 280L319 279z"/>
<path style="fill:#797979; stroke:none;" d="M339 279L340 280L339 279z"/>
<path style="fill:#9f9e9d; stroke:none;" d="M379 279L380 280L379 279M399 279L400 280L399 279M419 279L420 280L419 279M439 279L440 280L439 279M459 279L460 280L459 279M479 279L480 280L479 279M499 279L500 280L499 279M519 279L520 280L519 279M539 279L540 280L539 279M579 279L580 280L579 279M599 279L600 280L599 279M619 279L620 280L619 279M639 279L640 280L639 279M679 279L680 280L679 279M699 279L700 280L699 279M719 279L720 280L719 279z"/>
<path style="fill:#ffaf6f; stroke:none;" d="M325 281L326 282L325 281M337 281L338 282L337 281M336 282L337 283L336 282M330 283L330 284L333 284L330 283z"/>
<path style="fill:#9f9e9d; stroke:none;" d="M582 288L582 289L586 289L582 288M587 288L587 289L593 289L587 288M490.667 289.333L491.333 289.667L490.667 289.333M579 289L580 290L579 289M595.667 289.333L596.333 289.667L595.667 289.333M482.667 290.333L483.333 290.667L482.667 290.333z"/>
<path style="fill:#797979; stroke:none;" d="M511 361C509.719 364.753 509.049 368.628 506.751 371.96C496.626 386.641 479.364 379.521 466 375C464.954 379.395 463.231 388.51 466.028 392.49C468.577 396.119 476.019 396.447 480 397.196C497.242 400.439 515.892 394.738 523.676 378C532.173 359.728 528 334.663 528 315C528 308.865 530.13 297.873 527.397 292.318C523.603 284.609 511.086 290.728 511 298C505.9 294.672 501.166 291.355 495 290.326C446.034 282.149 444.562 375.11 495 368.815C501.185 368.043 505.953 364.294 511 361z"/>
<path style="fill:#9f9e9d; stroke:none;" d="M496.667 290.333L497.333 290.667L496.667 290.333M511 290L512 291L511 290M527 290L528 291L527 290z"/>
<path style="fill:#ffaf6f; stroke:none;" d="M576 290L577 291L576 290z"/>
<path style="fill:#9f9e9d; stroke:none;" d="M599 290L600 291L599 290M662 290L663 291L662 290M424 291L424 292L441 294C441.794 289.183 427.439 291 424 291M479 291L480 292L479 291M499 291L500 292L499 291z"/>
<path style="fill:#ffaf6f; stroke:none;" d="M500 291L501 292L500 291z"/>
<path style="fill:#9f9e9d; stroke:none;" d="M510 291L509 298L510 291M528 291L528 359L529 359L529 312L528 291z"/>
<path style="fill:#ffaf6f; stroke:none;" d="M574 291L575 292L574 291M601 291L602 292L601 291M630 291L631 292L630 291z"/>
<path style="fill:#797979; stroke:none;" d="M423 292L423 373L440.821 371.397L442 355L442 311L440.821 293.603L423 292z"/>
<path style="fill:#9f9e9d; stroke:none;" d="M476 292L477 293L476 292M502 292L503 293L502 292z"/>
<path style="fill:#ffaf6f; stroke:none;" d="M603 292L604 293L603 292z"/>
<path style="fill:#9f9e9d; stroke:none;" d="M677 292L677 307L678 307L677 292M422 293L422 372L423 372L423 318L422 293M474 293L475 294L474 293M504 293L505 294L504 293M571 293L572 294L571 293M604 293L605 294L604 293z"/>
<path style="fill:#ffaf6f; stroke:none;" d="M227 294L227 295L231 295L227 294M268 294L268 295L272 295L268 294z"/>
<path style="fill:#ff7202; stroke:none;" d="M250 307C241.995 291.699 223.365 292.658 212 303C211.911 295.509 208.969 294.967 202 295.001C199.141 295.015 194.198 294.493 193.488 298.228C190.649 313.154 194 332.626 194 348C194 355.482 192.186 365.67 194.318 372.852C195.606 377.191 207.301 377.424 210.397 374.972C213.478 372.532 212 364.476 212 361C212 349.483 209.3 333.949 213.109 323C215.309 316.674 221.78 310.653 228.999 312.448C234.227 313.748 237.18 318.986 237.815 324C239.412 336.623 238 350.276 238 363C238 372.469 241.906 381.191 253.682 375.397C257.757 373.392 256 363.734 256 360C256 347.387 251.263 311.967 272 312.214C277.774 312.282 282.069 317.64 282.811 323C284.774 337.178 282.902 352.684 283.001 367C283.057 375.237 292.161 379.991 299.682 374.972C302.516 373.081 301.994 368.946 302 366L302 340C302 319.946 302.262 297.272 277 294.86C273.219 294.499 269.649 294.579 266 295.789C259.663 297.89 255.316 303.27 250 307z"/>
<path style="fill:#ffaf6f; stroke:none;" d="M274 294L274 295L280 295L274 294z"/>
<path style="fill:#9f9e9d; stroke:none;" d="M570 294L571 295L570 294M605 294L606 295L605 294z"/>
<path style="fill:#ffaf6f; stroke:none;" d="M108 352L109 352L109 296L127 297C123.764 294.549 110.875 292.702 108.603 297.318C106.514 301.564 108 309.347 108 314L108 352M153 342L154 342L154 296L172 297C168.764 294.549 155.875 292.702 153.603 297.318C151.841 300.899 153 307.096 153 311L153 342M193.667 295.333L194.333 295.667L193.667 295.333M211 295L212 296L211 295M223 295L224 296L223 295M234.667 295.333L235.333 295.667L234.667 295.333M265.667 295.333L266.333 295.667L265.667 295.333M282.667 295.333L283.333 295.667L282.667 295.333z"/>
<path style="fill:#9f9e9d; stroke:none;" d="M471 295L472 296L471 295M507 295L508 296L507 295M606 295L607 296L606 295z"/>
<path style="fill:#ff7202; stroke:none;" d="M109 296L109 339C109 347.791 108.29 356.992 112.649 365C119.622 377.809 144.466 383.472 153 369L154 369C154.32 378.751 164.611 376 172 376L172 319L170.972 297.603L154 296L154 322C154 331.8 155.628 344.358 150.03 352.996C144.606 361.366 132.843 363.517 128.483 352.996C123.796 341.687 127 324.116 127 312C127 308.096 128.159 301.899 126.397 298.318C124.281 294.018 113.029 296 109 296z"/>
<path style="fill:#ffaf6f; stroke:none;" d="M220.667 296.333L221.333 296.667L220.667 296.333M238 296L239 297L238 296M263 296L264 297L263 296M286 296L287 297L286 296M322 296L323 297L322 296z"/>
<path style="fill:#ff7202; stroke:none;" d="M340 296C336.016 296 325.754 294.161 323.028 297.603C320.338 301 322 309.875 322 314L322 357C322 361.32 320.221 370.852 323.028 374.397C325.361 377.342 337.654 377.224 339.397 373.682C342.236 367.911 340 356.381 340 350L340 329L340 296z"/>
<path style="fill:#ffaf6f; stroke:none;" d="M340 296L340 375L341 375L341 321L340 296z"/>
<path style="fill:#9f9e9d; stroke:none;" d="M470 296L471 297L470 296M508 296L509 297L508 296M607 296L608 297L607 296z"/>
<path style="fill:#ffaf6f; stroke:none;" d="M240 297L241 298L240 297M261 297L262 298L261 297M288 297L289 298L288 297z"/>
<path style="fill:#9f9e9d; stroke:none;" d="M469 297L470 298L469 297M608 297L609 298L608 297z"/>
<path style="fill:#ffaf6f; stroke:none;" d="M217 298L218 299L217 298M242 298L243 299L242 298M260 298L261 299L260 298M290 298L291 299L290 298z"/>
<path style="fill:#9f9e9d; stroke:none;" d="M468 298L469 299L468 298M19 299L20 300L19 299M59 299L60 300L59 299M79 299L80 300L79 299M99 299L100 300L99 299M139 299L140 300L139 299M179 299L180 300L179 299z"/>
<path style="fill:#ffaf6f; stroke:none;" d="M215 299L216 300L215 299M243 299L244 300L243 299z"/>
<path style="fill:#797979; stroke:none;" d="M259 299L260 300L259 299z"/>
<path style="fill:#ffaf6f; stroke:none;" d="M291 299L292 300L291 299z"/>
<path style="fill:#9f9e9d; stroke:none;" d="M299 299L300 300L299 299M319 299L320 300L319 299M379 299L380 300L379 299M399 299L400 300L399 299M419 299L420 300L419 299M459 299L460 300L459 299M467 299L468 300L467 299M539 299L540 300L539 299M609 299L610 300L609 299M619 299L620 300L619 299M679 299L680 300L679 299M699 299L700 300L699 299M719 299L720 300L719 299z"/>
<path style="fill:#ffaf6f; stroke:none;" d="M193 300L193 375L194 375L194 323L193 300M214 300L215 301L214 300M257 300L258 301L257 300z"/>
<path style="fill:#9f9e9d; stroke:none;" d="M466 300L467 301L466 300M610 300L611 301L610 300z"/>
<path style="fill:#ffaf6f; stroke:none;" d="M213 301L214 302L213 301M256 301L257 302L256 301z"/>
<path style="fill:#9f9e9d; stroke:none;" d="M465 301L466 302L465 301z"/>
<path style="fill:#ffaf6f; stroke:none;" d="M212 302L213 303L212 302M255 302L256 303L255 302z"/>
<path style="fill:#9f9e9d; stroke:none;" d="M611 302L612 303L611 302z"/>
<path style="fill:#ffaf6f; stroke:none;" d="M254 303L255 304L254 303M253 304L254 305L253 304M296 304L297 305L296 304z"/>
<path style="fill:#9f9e9d; stroke:none;" d="M463 304L464 305L463 304z"/>
<path style="fill:#ffaf6f; stroke:none;" d="M249 305L250 306L249 305M252 305L253 306L252 305M297 305L298 306L297 305z"/>
<path style="fill:#9f9e9d; stroke:none;" d="M582 305L582 306L588 306L582 305M612 305L613 306L612 305M462 306L463 307L462 306M578 306L579 307L578 306M589 306L590 307L589 306z"/>
<path style="fill:#ffaf6f; stroke:none;" d="M298 307L299 308L298 307z"/>
<path style="fill:#9f9e9d; stroke:none;" d="M490 307L490 308L493 308L490 307z"/>
<path style="fill:#ffffff; stroke:none;" d="M480 320C470.315 328.452 481.692 352.264 494 351.721C512.596 350.901 513.882 318.287 500.96 309.738C493.052 304.507 478.808 309.584 480 320z"/>
<path style="fill:#9f9e9d; stroke:none;" d="M494 307L494 308L497 308L494 307M575 307L576 308L575 307M630 307L631 308L630 307M461 308L462 309L461 308M487 308L488 309L487 308M499 308L500 309L499 308M613.333 308.667L613.667 309.333L613.333 308.667M631 308L631 309L643 309L631 308M662 308L662 309L676 309L662 308z"/>
<path style="fill:#ffaf6f; stroke:none;" d="M676 308L677 309L676 308M299 309L300 310L299 309z"/>
<path style="fill:#9f9e9d; stroke:none;" d="M485 309L486 310L485 309M572 309L573 310L572 309z"/>
<path style="fill:#ffaf6f; stroke:none;" d="M460 310L461 311L460 310z"/>
<path style="fill:#9f9e9d; stroke:none;" d="M483 310L484 311L483 310M502 310L503 311L502 310M571 310L572 311L571 310M593 310L594 311L593 310z"/>
<path style="fill:#ffaf6f; stroke:none;" d="M300.333 311.667L300.667 312.333L300.333 311.667z"/>
<path style="fill:#9f9e9d; stroke:none;" d="M460 311L461 312L460 311M482 311L483 312L482 311M503 311L504 312L503 311z"/>
<path style="fill:#ffaf6f; stroke:none;" d="M223.667 312.333L224.333 312.667L223.667 312.333M229.667 312.333L230.333 312.667L229.667 312.333M268.667 312.333L269.333 312.667L268.667 312.333M274.667 312.333L275.333 312.667L274.667 312.333z"/>
<path style="fill:#9f9e9d; stroke:none;" d="M481 312L482 313L481 312M504 312L505 313L504 312M570 312L571 313L570 312M594 312L595 313L594 312z"/>
<path style="fill:#ffaf6f; stroke:none;" d="M220 313L221 314L220 313M232 313L233 314L232 313M266 313L267 314L266 313M277 313L278 314L277 313z"/>
<path style="fill:#9f9e9d; stroke:none;" d="M459.333 313.667L459.667 314.333L459.333 313.667M569 313L570 314L569 313z"/>
<path style="fill:#ffaf6f; stroke:none;" d="M594 313L595 314L594 313z"/>
<path style="fill:#9f9e9d; stroke:none;" d="M614 313L614 318L615 318L614 313z"/>
<path style="fill:#ffaf6f; stroke:none;" d="M218 314L219 315L218 314M264 314L265 315L264 314M278 314L279 315L278 314z"/>
<path style="fill:#9f9e9d; stroke:none;" d="M480 314L481 315L480 314M505 314L506 315L505 314z"/>
<path style="fill:#ffaf6f; stroke:none;" d="M217 315L218 316L217 315M263 315L264 316L263 315M301 315L301 320L302 320L301 315z"/>
<path style="fill:#9f9e9d; stroke:none;" d="M506 315L507 316L506 315z"/>
<path style="fill:#ffaf6f; stroke:none;" d="M216 316L217 317L216 316M235 316L236 317L235 316M262 316L263 317L262 316M280 316L281 317L280 316z"/>
<path style="fill:#9f9e9d; stroke:none;" d="M479 316L480 317L479 316M595.333 316.667L595.667 317.333L595.333 316.667z"/>
<path style="fill:#ffaf6f; stroke:none;" d="M215 317L216 318L215 317M261 317L262 318L261 317M281 317L282 318L281 317z"/>
<path style="fill:#9f9e9d; stroke:none;" d="M507 317L508 318L507 317z"/>
<path style="fill:#ffaf6f; stroke:none;" d="M236 318L237 319L236 318M260 318L261 319L260 318z"/>
<path style="fill:#9f9e9d; stroke:none;" d="M458.333 318.667L458.667 319.333L458.333 318.667M478 318L480 320L478 318z"/>
<path style="fill:#ffaf6f; stroke:none;" d="M507 318L508 319L507 318M595 318L596 319L595 318z"/>
<path style="fill:#9f9e9d; stroke:none;" d="M19 319L20 320L19 319M59 319L60 320L59 319M79 319L80 320L79 319M99 319L100 320L99 319M139 319L140 320L139 319M179 319L180 320L179 319z"/>
<path style="fill:#ffaf6f; stroke:none;" d="M214 319L215 320L214 319z"/>
<path style="fill:#9f9e9d; stroke:none;" d="M219 319L220 320L219 319z"/>
<path style="fill:#797979; stroke:none;" d="M259 319L260 320L259 319z"/>
<path style="fill:#9f9e9d; stroke:none;" d="M279 319L280 320L279 319M319 319L320 320L319 319M379 319L380 320L379 319M399 319L400 320L399 319M419 319L420 320L419 319z"/>
<path style="fill:#ffaf6f; stroke:none;" d="M478 319L479 320L478 319z"/>
<path style="fill:#9f9e9d; stroke:none;" d="M499 319L500 320L499 319M539 319L540 320L539 319M579 319L580 320L579 319M619 319L620 320L619 319M639 319L640 320L639 319M679 319L680 320L679 319M699 319L700 320L699 319M719 319L720 320L719 319z"/>
<path style="fill:#ffaf6f; stroke:none;" d="M259 320L260 321L259 320M282 320L283 321L282 320z"/>
<path style="fill:#9f9e9d; stroke:none;" d="M508.333 320.667L508.667 321.333L508.333 320.667z"/>
<path style="fill:#ffaf6f; stroke:none;" d="M213 321L214 322L213 321M237 321L237 375L238 375L238 339L237 321M258 322L259 323L258 322z"/>
<path style="fill:#9f9e9d; stroke:none;" d="M477 323L477 328L478 328L477 323z"/>
<path style="fill:#ffaf6f; stroke:none;" d="M212.333 324.667L212.667 325.333L212.333 324.667M257.333 325.667L257.667 326.333L257.333 325.667z"/>
<path style="fill:#9f9e9d; stroke:none;" d="M457 325L457 335L458 335L457 325M509 325L509 335L510 335L509 325z"/>
<path style="fill:#ffaf6f; stroke:none;" d="M256 329L256 375L257 375C257 361.997 261.01 340.939 256 329z"/>
<path style="fill:#9f9e9d; stroke:none;" d="M477 332L477 336L478 336L477 332M478 338L478 340L480 340L478 338M508.333 338.667L508.667 339.333L508.333 338.667M19 339L20 340L19 339M59 339L60 340L59 339M79 339L80 340L79 339M99 339L100 340L99 339M139 339L140 340L139 339M179 339L180 340L179 339M219 339L220 340L219 339M259 339L260 340L259 339M279 339L280 340L279 339M319 339L320 340L319 339M379 339L380 340L379 339M399 339L400 340L399 339M419 339L420 340L419 339M499 339L500 340L499 339M539 339L540 340L539 339M579 339L580 340L579 339M619 339L620 340L619 339M639 339L640 340L639 339M679 339L680 340L679 339M699 339L700 340L699 339M719 339L720 340L719 339M458.333 340.667L458.667 341.333L458.333 340.667M479 341L480 342L479 341M507 341L508 342L507 341M480 343L481 344L480 343M506 343L507 344L506 343M459.333 344.667L459.667 345.333L459.333 344.667M481 345L482 346L481 345M505 345L506 346L505 345z"/>
<path style="fill:#ffaf6f; stroke:none;" d="M152 346L152 349L153 349L152 346z"/>
<path style="fill:#9f9e9d; stroke:none;" d="M482 346L483 347L482 346M504 346L505 347L504 346M460 347L461 348L460 347M483 347L484 348L483 347M503 347L504 348L503 347z"/>
<path style="fill:#ffaf6f; stroke:none;" d="M127 348L127 351L128 351L127 348z"/>
<path style="fill:#9f9e9d; stroke:none;" d="M484 348L485 349L484 348M502 348L503 349L502 348M643 348L643 358L644 358L643 348M485 349L486 350L485 349M501 349L502 350L501 349z"/>
<path style="fill:#ffaf6f; stroke:none;" d="M151 350L152 351L151 350z"/>
<path style="fill:#9f9e9d; stroke:none;" d="M461 350L462 351L461 350M487 350L488 351L487 350M499 350L500 351L499 350M489.667 351.333L490.333 351.667L489.667 351.333M496.667 351.333L497.333 351.667L496.667 351.333M462 352L463 353L462 352z"/>
<path style="fill:#ffaf6f; stroke:none;" d="M128 353L129 354L128 353z"/>
<path style="fill:#9f9e9d; stroke:none;" d="M662.333 353.667L662.667 354.333L662.333 353.667z"/>
<path style="fill:#ffaf6f; stroke:none;" d="M149 354L150 355L149 354M109 355L109 358L110 358L109 355z"/>
<path style="fill:#9f9e9d; stroke:none;" d="M375 355L375 356L412 356C402.202 351.889 385.649 355 375 355M464 355L465 356L464 355z"/>
<path style="fill:#ffaf6f; stroke:none;" d="M147 356L148 357L147 356z"/>
<path style="fill:#9f9e9d; stroke:none;" d="M412 356L412 373L413 373L412 356z"/>
<path style="fill:#ffaf6f; stroke:none;" d="M663 356L664 357L663 356z"/>
<path style="fill:#9f9e9d; stroke:none;" d="M676 356L677 357L676 356M678 356L679 357L678 356z"/>
<path style="fill:#ffaf6f; stroke:none;" d="M130 357L131 358L130 357M146 357L147 358L146 357M664 357L665 358L664 357z"/>
<path style="fill:#9f9e9d; stroke:none;" d="M673 357L674 358L673 357z"/>
<path style="fill:#ffaf6f; stroke:none;" d="M94 358L95 359L94 358M131 358L132 359L131 358M145 358L146 359L145 358M466 358L467 359L466 358z"/>
<path style="fill:#9f9e9d; stroke:none;" d="M665 358L665 359L671 359L665 358M19 359L20 360L19 359z"/>
<path style="fill:#ffaf6f; stroke:none;" d="M95 359L95 375L96 375L95 359z"/>
<path style="fill:#9f9e9d; stroke:none;" d="M99 359L100 360L99 359z"/>
<path style="fill:#ffaf6f; stroke:none;" d="M133 359L134 360L133 359z"/>
<path style="fill:#9f9e9d; stroke:none;" d="M139 359L140 360L139 359z"/>
<path style="fill:#ffaf6f; stroke:none;" d="M142.667 359.333L143.333 359.667L142.667 359.333z"/>
<path style="fill:#9f9e9d; stroke:none;" d="M179 359L180 360L179 359M219 359L220 360L219 359M259 359L260 360L259 359M279 359L280 360L279 359M319 359L320 360L319 359M419 359L420 360L419 359M459 359L460 360L459 359z"/>
<path style="fill:#ffaf6f; stroke:none;" d="M467 359L468 360L467 359z"/>
<path style="fill:#9f9e9d; stroke:none;" d="M539 359L540 360L539 359M579 359L580 360L579 359M619 359L620 360L619 359M639 359L640 360L639 359M699 359L700 360L699 359M719 359L720 360L719 359z"/>
<path style="fill:#ffaf6f; stroke:none;" d="M110 360L111 361L110 360M136 360L136 361L140 361L136 360M468 360L469 361L468 360z"/>
<path style="fill:#9f9e9d; stroke:none;" d="M679 360L679 364L680 364L679 360z"/>
<path style="fill:#ffaf6f; stroke:none;" d="M469 361L470 362L469 361z"/>
<path style="fill:#9f9e9d; stroke:none;" d="M509.667 361.333L510.333 361.667L509.667 361.333M644.333 361.667L644.667 362.333L644.333 361.667z"/>
<path style="fill:#ffaf6f; stroke:none;" d="M111.333 362.667L111.667 363.333L111.333 362.667M470 362L471 363L470 362z"/>
<path style="fill:#9f9e9d; stroke:none;" d="M508 362L509 363L508 362M472 363L473 364L472 363M507 363L508 364L507 363M473 364L474 365L473 364M506 364L507 365L506 364z"/>
<path style="fill:#ffaf6f; stroke:none;" d="M112 365L113 366L112 365z"/>
<path style="fill:#9f9e9d; stroke:none;" d="M475 365L476 366L475 365M504 365L505 366L504 365z"/>
<path style="fill:#ffaf6f; stroke:none;" d="M509 365L510 366L509 365z"/>
<path style="fill:#9f9e9d; stroke:none;" d="M527.333 365.667L527.667 366.333L527.333 365.667M645 365L646 366L645 365z"/>
<path style="fill:#ffaf6f; stroke:none;" d="M113 366L114 367L113 366z"/>
<path style="fill:#9f9e9d; stroke:none;" d="M477 366L478 367L477 366M502 366L503 367L502 366M509 366L510 367L509 366z"/>
<path style="fill:#ffaf6f; stroke:none;" d="M479 367L480 368L479 367z"/>
<path style="fill:#9f9e9d; stroke:none;" d="M480 367L481 368L480 367M500 367L501 368L500 367M646 367L647 368L646 367z"/>
<path style="fill:#ffaf6f; stroke:none;" d="M114 368L115 369L114 368M482 368L483 369L482 368z"/>
<path style="fill:#9f9e9d; stroke:none;" d="M483.667 368.333L484.333 368.667L483.667 368.333M497 368L498 369L497 368M647 368L648 369L647 368z"/>
<path style="fill:#ffaf6f; stroke:none;" d="M115 369L116 370L115 369M153 369L154 370L153 369z"/>
<path style="fill:#9f9e9d; stroke:none;" d="M489 369L489 370L493 370L489 369M508 369L509 370L508 369M526.333 369.667L526.667 370.333L526.333 369.667z"/>
<path style="fill:#ffaf6f; stroke:none;" d="M116 370L117 371L116 370M117 371L118 372L117 371M151 371L152 372L151 371z"/>
<path style="fill:#9f9e9d; stroke:none;" d="M441.333 371.667L441.667 372.333L441.333 371.667M507 371L508 372L507 371z"/>
<path style="fill:#ffaf6f; stroke:none;" d="M526 371L527 372L526 371z"/>
<path style="fill:#9f9e9d; stroke:none;" d="M650 371L651 372L650 371z"/>
<path style="fill:#ffaf6f; stroke:none;" d="M118 372L119 373L118 372M150 372L151 373L150 372z"/>
<path style="fill:#9f9e9d; stroke:none;" d="M355 372L356 373L355 372M568 372L569 373L568 372M596 372L597 373L596 372z"/>
<path style="fill:#ffaf6f; stroke:none;" d="M651 372L652 373L651 372M149 373L150 374L149 373z"/>
<path style="fill:#9f9e9d; stroke:none;" d="M356 373L356 374L412 374L394 373L356 373M423 373L423 374L441 374L423 373M525 373L526 374L525 373M551 373L551 374L568 374L551 373M597 373L597 374L614 374L597 373M653 373L654 374L653 373M676 373L677 374L676 373z"/>
<path style="fill:#ffaf6f; stroke:none;" d="M39 374L40 375L39 374M121 374L122 375L121 374M147 374L148 375L147 374M283 374L284 375L283 374M301 374L302 375L301 374M655 374L656 375L655 374z"/>
<path style="fill:#9f9e9d; stroke:none;" d="M656 374L657 375L656 374M672.667 374.333L673.333 374.667L672.667 374.333z"/>
<path style="fill:#ffaf6f; stroke:none;" d="M40 375L41 376L40 375M94 375L95 376L94 375M123 375L124 376L123 375M145 375L146 376L145 375M154 375L155 376L154 375M194 375L195 376L194 375M211 375L212 376L211 375M238 375L239 376L238 375M255 375L256 376L255 375M284 375L285 376L284 375M300 375L301 376L300 375M322 375L323 376L322 375M339 375L340 376L339 375z"/>
<path style="fill:#9f9e9d; stroke:none;" d="M467 375L468 376L467 375M504 375L505 376L504 375M659 375L659 376L669 376L659 375z"/>
<path style="fill:#ffaf6f; stroke:none;" d="M669 375L670 376L669 375M126.667 376.333L127.333 376.667L126.667 376.333M142.667 376.333L143.333 376.667L142.667 376.333z"/>
<path style="fill:#9f9e9d; stroke:none;" d="M465 376L466 377L465 376M470 376L471 377L470 376M524 376L525 377L524 376z"/>
<path style="fill:#ffaf6f; stroke:none;" d="M131 377L131 378L140 378L131 377z"/>
<path style="fill:#9f9e9d; stroke:none;" d="M472 377L473 378L472 377M501 377L502 378L501 377M475 378L476 379L475 378z"/>
<path style="fill:#ffaf6f; stroke:none;" d="M499 378L500 379L499 378z"/>
<path style="fill:#9f9e9d; stroke:none;" d="M523 378L524 379L523 378M19 379L20 380L19 379M39 379L40 380L39 379M59 379L60 380L59 379M79 379L80 380L79 379M99 379L100 380L99 379M119 379L120 380L119 379M139 379L140 380L139 379M159 379L160 380L159 379M179 379L180 380L179 379M199 379L200 380L199 379M219 379L220 380L219 379M239 379L240 380L239 379M259 379L260 380L259 379M279 379L280 380L279 379M299 379L300 380L299 379M319 379L320 380L319 379M339 379L340 380L339 379M359 379L360 380L359 379M379 379L380 380L379 379M399 379L400 380L399 379M419 379L420 380L419 379M439 379L440 380L439 379M459 379L460 380L459 379M478 379L479 380L478 379M497 379L498 380L497 379M539 379L540 380L539 379M559 379L560 380L559 379M579 379L580 380L579 379M599 379L600 380L599 379M619 379L620 380L619 379M639 379L640 380L639 379M659 379L660 380L659 379M679 379L680 380L679 379M699 379L700 380L699 379M719 379L720 380L719 379M482 380L482 381L487 381L482 380M491 380L491 381L495 381L491 380M522 380L523 381L522 380M520 383L521 384L520 383M464 384L464 393L465 393L464 384M518 386L519 387L518 386M517 387L518 388L517 387z"/>
<path style="fill:#ffaf6f; stroke:none;" d="M516 388L517 389L516 388M515 389L516 390L515 389z"/>
<path style="fill:#9f9e9d; stroke:none;" d="M511 392L512 393L511 392M465 393L466 394L465 393M509 393L510 394L509 393M468 394L469 395L468 394M507 394L508 395L507 394M471 395L472 396L471 395M505 395L506 396L505 395z"/>
<path style="fill:#ffaf6f; stroke:none;" d="M474 396L475 397L474 396z"/>
<path style="fill:#9f9e9d; stroke:none;" d="M475.667 396.333L476.333 396.667L475.667 396.333M501.667 396.333L502.333 396.667L501.667 396.333M479 397L479 398L482 398L479 397M496 397L496 398L499 398L496 397z"/>
<path style="fill:#ffaf6f; stroke:none;" d="M499 397L500 398L499 397z"/>
<path style="fill:#9f9e9d; stroke:none;" d="M19 399L20 400L19 399M39 399L40 400L39 399M59 399L60 400L59 399M79 399L80 400L79 399M99 399L100 400L99 399M119 399L120 400L119 399M139 399L140 400L139 399M159 399L160 400L159 399M179 399L180 400L179 399M199 399L200 400L199 399M219 399L220 400L219 399M239 399L240 400L239 399M259 399L260 400L259 399M279 399L280 400L279 399M299 399L300 400L299 399M319 399L320 400L319 399M339 399L340 400L339 399M359 399L360 400L359 399M379 399L380 400L379 399M399 399L400 400L399 399M419 399L420 400L419 399M439 399L440 400L439 399M459 399L460 400L459 399M479 399L480 400L479 399M499 399L500 400L499 399M519 399L520 400L519 399M539 399L540 400L539 399M559 399L560 400L559 399M579 399L580 400L579 399M599 399L600 400L599 399M619 399L620 400L619 399M639 399L640 400L639 399M659 399L660 400L659 399M679 399L680 400L679 399M699 399L700 400L699 399M719 399L720 400L719 399M19 419L20 420L19 419M39 419L40 420L39 419M59 419L60 420L59 419M79 419L80 420L79 419M99 419L100 420L99 419M119 419L120 420L119 419M139 419L140 420L139 419M159 419L160 420L159 419M179 419L180 420L179 419M199 419L200 420L199 419M219 419L220 420L219 419M239 419L240 420L239 419M259 419L260 420L259 419M279 419L280 420L279 419M299 419L300 420L299 419M319 419L320 420L319 419M339 419L340 420L339 419M359 419L360 420L359 419M379 419L380 420L379 419M399 419L400 420L399 419M419 419L420 420L419 419M439 419L440 420L439 419M459 419L460 420L459 419M479 419L480 420L479 419M499 419L500 420L499 419M519 419L520 420L519 419M539 419L540 420L539 419M559 419L560 420L559 419M579 419L580 420L579 419M599 419L600 420L599 419M619 419L620 420L619 419M639 419L640 420L639 419M659 419L660 420L659 419M679 419L680 420L679 419M699 419L700 420L699 419M719 419L720 420L719 419M19 439L20 440L19 439M39 439L40 440L39 439M59 439L60 440L59 439M79 439L80 440L79 439M99 439L100 440L99 439M119 439L120 440L119 439M139 439L140 440L139 439M159 439L160 440L159 439M179 439L180 440L179 439M199 439L200 440L199 439M219 439L220 440L219 439M239 439L240 440L239 439M259 439L260 440L259 439M279 439L280 440L279 439M299 439L300 440L299 439M319 439L320 440L319 439M339 439L340 440L339 439M359 439L360 440L359 439M379 439L380 440L379 439M399 439L400 440L399 439M419 439L420 440L419 439M439 439L440 440L439 439M459 439L460 440L459 439M479 439L480 440L479 439M499 439L500 440L499 439M519 439L520 440L519 439M539 439L540 440L539 439M559 439L560 440L559 439M579 439L580 440L579 439M599 439L600 440L599 439M619 439L620 440L619 439M639 439L640 440L639 439M659 439L660 440L659 439M679 439L680 440L679 439M699 439L700 440L699 439M719 439L720 440L719 439M19 459L20 460L19 459M39 459L40 460L39 459M59 459L60 460L59 459M79 459L80 460L79 459M99 459L100 460L99 459M119 459L120 460L119 459M139 459L140 460L139 459M159 459L160 460L159 459M179 459L180 460L179 459M199 459L200 460L199 459M219 459L220 460L219 459M239 459L240 460L239 459M259 459L260 460L259 459M279 459L280 460L279 459M299 459L300 460L299 459M319 459L320 460L319 459M339 459L340 460L339 459M359 459L360 460L359 459M379 459L380 460L379 459M399 459L400 460L399 459M419 459L420 460L419 459M439 459L440 460L439 459M459 459L460 460L459 459M479 459L480 460L479 459M499 459L500 460L499 459M519 459L520 460L519 459M539 459L540 460L539 459M559 459L560 460L559 459M579 459L580 460L579 459M599 459L600 460L599 459M619 459L620 460L619 459M639 459L640 460L639 459M659 459L660 460L659 459M679 459L680 460L679 459M699 459L700 460L699 459M719 459L720 460L719 459z"/>
</svg>
